<svg width="40" height="40" viewBox="0 0 40 40" fill="none" xmlns="http://www.w3.org/2000/svg">
<path d="M39.7276 14.0771L37.9786 12.8903C37.9786 12.0782 37.9161 11.2662 37.7912 10.4542L39.3528 9.01746C39.5402 8.83007 39.6027 8.51774 39.4777 8.26788L37.9161 5.26957C37.7912 5.01971 37.5413 4.89478 37.229 4.95725L35.1677 5.3945C34.6055 4.76985 33.9808 4.27014 33.2937 3.83288L33.3562 1.70908C33.3562 1.45922 33.1688 1.20936 32.9189 1.08443L29.6083 0.0225298C29.3585 -0.039935 29.0461 0.0225298 28.9212 0.272389L27.7344 2.0214C26.9223 2.0214 26.1103 2.08387 25.2358 2.2088L23.7991 0.647178C23.6117 0.459783 23.2994 0.397319 23.0495 0.522248L20.0512 2.08387C19.8013 2.2088 19.6764 2.45866 19.7389 2.77098L20.1761 4.83232C19.5515 5.3945 19.0518 6.01915 18.552 6.70626L16.4282 6.6438C16.1159 6.6438 15.9285 6.83119 15.8036 7.08105L14.8042 10.3292C14.7417 10.5791 14.8042 10.8914 15.054 11.0163L16.803 12.2032C16.803 13.0152 16.8655 13.8897 16.9904 14.7018L15.4288 16.1384C15.2414 16.3258 15.1789 16.6382 15.3039 16.888V16.9505L11.8683 20.7608V20.4485C11.8058 20.1987 11.556 20.0113 11.3061 20.0113H8.68261C8.43275 20.0113 8.18289 20.1987 8.12042 20.4485L7.68317 21.9477C7.12099 22.1351 6.5588 22.3225 5.99662 22.6348L4.62239 21.8852C4.37254 21.7603 4.06021 21.8227 3.87282 22.0101L1.99887 23.8841C1.81148 24.0715 1.74901 24.3838 1.87394 24.6337L2.62352 26.0079C2.3112 26.5076 2.1238 27.0698 1.93641 27.6944L0.437254 28.1317C0.187394 28.1942 0 28.444 0 28.6939V31.3174C0 31.5672 0.187394 31.8171 0.437254 31.8796L1.93641 32.3168C2.1238 32.879 2.3112 33.4412 2.62352 34.0034L1.87394 35.4401C1.74901 35.6899 1.81148 36.0023 1.99887 36.1896L3.87282 38.0636C4.06021 38.1885 4.37254 38.251 4.55993 38.1261L5.93415 37.3765C6.43387 37.6888 6.99606 37.8762 7.6207 38.0636L8.05796 39.5627C8.12042 39.8126 8.37028 40 8.62014 40H11.2437C11.4935 40 11.7434 39.8126 11.8058 39.5627L12.2431 38.0636C12.8053 37.8762 13.3675 37.6888 13.9296 37.3765L15.3039 38.1261C15.5537 38.251 15.8661 38.1885 16.0535 38.0011L17.9274 36.1272C18.1148 35.9398 18.1773 35.6275 18.0523 35.3776L17.3027 34.0034C17.6151 33.4412 17.8025 32.879 17.9899 32.3168L19.489 31.8796C19.7389 31.8171 19.9263 31.5672 19.9263 31.3174V28.6939C19.9263 28.444 19.7389 28.1942 19.489 28.1317L19.1767 28.0068L23.0495 24.5087L25.1733 25.1958C25.4232 25.2583 25.7355 25.1958 25.8604 24.946L27.0473 23.197C27.8593 23.197 28.7338 23.1345 29.5458 23.0096L30.9825 24.5712C31.1699 24.7586 31.4823 24.8211 31.7321 24.6961L34.7304 23.1345C34.9803 23.0096 35.1052 22.7597 35.0427 22.4474L34.6055 20.3861C35.2301 19.8239 35.7299 19.1992 36.1671 18.5121L38.2909 18.5746C38.5408 18.5746 38.7906 18.3872 38.9156 18.1373L39.915 14.8891C40.0399 14.5144 39.915 14.2645 39.7276 14.0771ZM24.1114 9.26732C24.9859 8.39281 26.1103 7.89309 27.422 7.89309C29.9831 7.89309 32.1069 10.0169 32.1069 12.578C32.1069 15.139 29.9831 17.2628 27.422 17.2628C24.861 17.2628 22.7372 15.139 22.7372 12.578C22.6747 10.4542 24.0489 9.32978 24.1114 9.26732ZM27.422 18.5121C27.6094 18.5121 27.7344 18.5121 27.9218 18.5121L22.7996 23.1345L22.8621 21.1356C22.8621 20.9482 22.7372 20.6984 22.5498 20.5734C21.7377 20.0737 20.9882 19.4491 20.426 18.762C20.3011 18.5746 20.0512 18.5121 19.8638 18.5746L17.8649 18.9494L16.8655 17.1379L21.4879 12.0782C21.4879 12.2656 21.4879 12.3906 21.4879 12.578C21.4879 15.8261 24.1114 18.5121 27.422 18.5121ZM16.9904 19.9488C17.1154 20.1987 17.3652 20.3236 17.6775 20.2611L19.7389 19.8239C20.3011 20.4485 20.9257 20.9482 21.6128 21.448L21.5504 23.5718C21.5504 23.7592 21.6128 23.9465 21.8002 24.0715L17.9274 27.507C17.74 27.0073 17.5526 26.5076 17.3027 26.0079L18.0523 24.6337C18.1773 24.3838 18.1148 24.0715 17.9274 23.8841L16.0535 22.0101C15.8661 21.8227 15.5537 21.7603 15.3039 21.8852L13.9296 22.6348C13.4299 22.3849 12.9302 22.1351 12.368 22.0101L15.9285 18.0749L16.9904 19.9488ZM9.99437 26.4451C11.9308 26.4451 13.4924 28.0068 13.4924 29.9432C13.4924 31.8796 11.9308 33.4412 9.99437 33.4412C8.05796 33.4412 6.49634 31.8796 6.49634 29.9432C6.49634 28.0068 8.05796 26.4451 9.99437 26.4451ZM9.99437 25.2583C9.80697 25.2583 9.68204 25.2583 9.49465 25.2583L11.556 23.0096C11.6185 23.0096 11.6185 23.072 11.6809 23.072C12.368 23.2594 13.0551 23.5093 13.6798 23.8841C13.8672 24.009 14.117 24.009 14.3044 23.8841L15.6162 23.197L16.8655 24.4463L16.1784 25.758C16.0535 25.9454 16.0535 26.1953 16.1784 26.3827C16.5532 27.0073 16.803 27.6944 16.9904 28.3815C16.9904 28.444 16.9904 28.444 17.0529 28.5065L14.8042 30.5678C14.8042 30.4429 14.8042 30.2555 14.8042 30.0681C14.7417 27.3821 12.6179 25.2583 9.99437 25.2583ZM18.7394 29.1311V30.8801L17.3027 31.3174C17.1154 31.3799 16.928 31.5672 16.8655 31.7546C16.6781 32.4418 16.4282 33.1289 16.0535 33.7535C15.9285 33.9409 15.9285 34.1908 16.0535 34.3782L16.7406 35.6899L15.4913 36.9392L14.1795 36.2521C13.9921 36.1272 13.7423 36.1272 13.5549 36.2521C12.9302 36.6269 12.2431 36.8768 11.556 37.0642C11.3686 37.1266 11.1812 37.2515 11.1187 37.5014L10.7439 38.9381H8.99493L8.55768 37.5014C8.49521 37.314 8.30782 37.1266 8.12042 37.0642C7.43331 36.8768 6.7462 36.6269 6.12155 36.2521C5.93416 36.1272 5.6843 36.1272 5.4969 36.2521L4.37254 36.8143L3.12324 35.565L3.81035 34.2532C3.93528 34.0658 3.93528 33.816 3.81035 33.6286C3.43556 33.0039 3.1857 32.3168 2.99831 31.6297C2.93585 31.4423 2.81092 31.2549 2.56106 31.1925L1.12437 30.7552V29.0062L2.62352 28.7563C2.81092 28.6939 2.99831 28.5065 3.06077 28.3191C3.24817 27.632 3.49803 26.9449 3.87282 26.3202C3.99775 26.1328 3.99775 25.883 3.87282 25.6956L3.1857 24.3838L4.435 23.1345L5.74676 23.8216C5.93416 23.9465 6.18401 23.9465 6.37141 23.8216C6.99606 23.4468 7.68317 23.197 8.37028 23.0096C8.55768 22.9471 8.74507 22.8222 8.80754 22.5723L9.24479 21.1356H10.9938L11.1812 21.6978L6.80866 26.5076C5.74676 27.507 5.24704 28.6939 5.24704 30.0056C5.24704 32.6292 7.37085 34.753 9.99437 34.753C11.3061 34.753 12.493 34.2532 13.305 33.3787L18.1148 29.0062L18.7394 29.1311ZM37.9161 17.2003L35.9173 17.1379C35.6674 17.1379 35.48 17.2628 35.3551 17.4502C34.8554 18.2622 34.2307 18.9494 33.5436 19.574C33.3562 19.6989 33.2937 19.9488 33.3562 20.1362L33.731 22.1351L31.5447 23.2594L30.1705 21.8227C30.0456 21.6353 29.7957 21.5729 29.6083 21.6353C28.6713 21.8852 27.7344 21.9477 26.7974 21.8852C26.5475 21.8852 26.3601 21.9477 26.2352 22.1351L25.1108 23.8216L24.1114 23.5093L31.5447 16.7631C32.6066 15.7012 33.2937 14.202 33.2937 12.578C33.2937 9.32978 30.6702 6.6438 27.3596 6.6438C25.7355 6.6438 24.2363 7.33091 23.1744 8.39281L18.1148 13.9522C17.9899 13.3275 17.9899 12.6404 18.0523 12.0158C18.0523 11.8284 17.9899 11.5785 17.8025 11.4536L16.1159 10.3292L16.8655 7.95556L18.8644 8.01802C19.0518 8.01802 19.3016 7.89309 19.4265 7.7057C19.9263 6.89366 20.5509 6.14408 21.238 5.5819C21.4254 5.45697 21.4879 5.20711 21.4254 5.01971L21.0506 3.02084L23.2369 1.89647L24.6111 3.33316C24.7361 3.52056 24.9859 3.58302 25.1733 3.52056C26.1103 3.2707 27.0473 3.20823 27.9842 3.2707C28.1716 3.2707 28.4215 3.20823 28.5464 3.02084L29.6708 1.33429L32.0444 2.08387L31.982 4.08274C31.982 4.27014 32.1069 4.51999 32.2943 4.64492C33.1063 5.14464 33.7934 5.76929 34.4181 6.4564C34.543 6.6438 34.7929 6.70626 34.9803 6.6438L36.9792 6.26901L38.1035 8.45528L36.6668 9.8295C36.4794 9.95443 36.417 10.2043 36.4794 10.3917C36.7293 11.3287 36.7918 12.2656 36.7293 13.2026C36.7293 13.39 36.7918 13.6399 36.9792 13.7648L38.6657 14.8891L37.9161 17.2003Z" fill="#1e988a"/>
<path d="M24.1114 9.26732C24.9859 8.39281 26.1103 7.89309 27.422 7.89309C29.9831 7.89309 32.1069 10.0169 32.1069 12.578C32.1069 15.139 29.9831 17.2628 27.422 17.2628C24.861 17.2628 22.7372 15.139 22.7372 12.578C22.6747 10.4542 24.0489 9.32978 24.1114 9.26732Z" fill="#1e988a"/>
<path d="M9.99437 26.4451C11.9308 26.4451 13.4924 28.0068 13.4924 29.9432C13.4924 31.8796 11.9308 33.4412 9.99437 33.4412C8.05796 33.4412 6.49634 31.8796 6.49634 29.9432C6.49634 28.0068 8.05796 26.4451 9.99437 26.4451Z" fill="#1e988a"/>
<path d="M27.422 14.8267C28.6713 14.8267 29.6707 13.8273 29.6707 12.578C29.6707 11.3287 28.6713 10.3292 27.422 10.3292C26.1727 10.3292 25.1733 11.3287 25.1733 12.578C25.1108 13.8273 26.1727 14.8267 27.422 14.8267ZM27.422 11.5161C27.9842 11.5161 28.4839 12.0158 28.4839 12.578C28.4839 13.1401 27.9842 13.6399 27.422 13.6399C26.8598 13.6399 26.3601 13.1401 26.3601 12.578C26.3601 12.0158 26.7974 11.5161 27.422 11.5161Z" fill="#1e988a"/>
<path d="M9.99448 32.0045C11.1188 32.0045 11.9934 31.13 11.9934 30.0056C11.9934 28.8813 11.1188 28.0067 9.99448 28.0067C8.87011 28.0067 7.99561 28.8813 7.99561 30.0056C7.99561 31.13 8.87011 32.0045 9.99448 32.0045ZM9.99448 29.1936C10.4317 29.1936 10.8065 29.5684 10.8065 30.0056C10.8065 30.4429 10.4317 30.8177 9.99448 30.8177C9.55723 30.8177 9.18244 30.4429 9.18244 30.0056C9.18244 29.5684 9.55723 29.1936 9.99448 29.1936Z" fill="#1e988a"/>
</svg>
