<svg width="33" height="40" viewBox="0 0 33 40" fill="none" xmlns="http://www.w3.org/2000/svg">
<path d="M11.5145 0C10.1818 0 9.10277 1.08644 9.10277 2.41175V19.9853L0.617644 12.1764C0.578348 12.1406 0.531521 12.1141 0.480617 12.0989C0.429713 12.0836 0.37603 12.0799 0.323528 12.0882C0.240633 12.1026 0.165561 12.146 0.111695 12.2107C0.0578278 12.2753 0.0286673 12.357 0.0294116 12.4411L0.0147058 33.4706L0 39.6471C0.00055806 39.7405 0.037922 39.83 0.10399 39.896C0.170059 39.9621 0.259506 39.9994 0.352939 40H29.9556C30.0238 39.9964 30.0896 39.9733 30.145 39.9333C30.2004 39.8933 30.243 39.8382 30.2679 39.7745C30.2927 39.7109 30.2987 39.6414 30.285 39.5745C30.2714 39.5075 30.2387 39.4459 30.1909 39.3971L22.1321 31.9854H30.4116C31.7443 31.9854 32.838 30.9167 32.838 29.5883V2.41198C32.838 1.08361 31.7442 0.000229778 30.4116 0.000229778L11.5145 0ZM11.5145 0.720555H30.4114C31.3679 0.720555 32.1319 1.47091 32.1319 2.41175V29.5881C32.1319 30.5289 31.3679 31.2645 30.4114 31.2645H21.3526L15.6467 26.0147V19.4557C15.6467 18.9096 15.206 18.4262 14.6467 18.4262H12.7497C12.1904 18.4262 11.7203 18.8904 11.7203 19.4557V22.3968L9.80856 20.6468V2.41161C9.80856 1.46771 10.558 0.720555 11.5145 0.720555ZM12.838 2.98525C12.226 2.98525 11.7204 3.47654 11.7204 4.08821V6.83822C11.7204 7.44984 12.226 7.95587 12.838 7.95587H29.0878C29.6998 7.95587 30.2055 7.44984 30.2055 6.83822V4.08821C30.2055 3.47659 29.6998 2.98525 29.0878 2.98525H12.838ZM12.838 3.69113H29.0878C29.3221 3.69113 29.4996 3.86101 29.4996 4.08818V6.8382C29.4996 7.06537 29.3221 7.24996 29.0878 7.24996H12.838C12.6038 7.24996 12.441 7.06537 12.441 6.8382V4.08818C12.441 3.86101 12.6038 3.69113 12.838 3.69113ZM12.7204 11.8675C12.1793 11.8675 11.7204 12.3115 11.7204 12.8529V14.7794C11.7204 15.3207 12.1793 15.7646 12.7204 15.7646H14.6616C15.2026 15.7646 15.6616 15.3207 15.6616 14.7794V12.8529C15.6616 12.3115 15.2026 11.8675 14.6616 11.8675H12.7204ZM19.9999 11.8675C19.4588 11.8675 18.9999 12.3115 18.9999 12.8529V14.7794C18.9999 15.3207 19.4588 15.7646 19.9999 15.7646H21.941C22.4821 15.7646 22.941 15.3207 22.941 14.7794V12.8529C22.941 12.3115 22.4821 11.8675 21.941 11.8675H19.9999ZM27.2648 11.8675C26.7237 11.8675 26.2795 12.3115 26.2795 12.8529V14.7794C26.2795 15.3207 26.7237 15.7646 27.2648 15.7646H29.2206C29.7617 15.7646 30.2059 15.3207 30.2059 14.7794V12.8529C30.2059 12.3115 29.7617 11.8675 29.2206 11.8675H27.2648ZM12.7209 12.5734H14.662C14.8253 12.5734 14.9414 12.696 14.9414 12.8528V14.7793C14.9414 14.9362 14.8253 15.0587 14.662 15.0587H12.7209C12.5576 15.0587 12.4415 14.9362 12.4415 14.7793V12.8528C12.4415 12.696 12.5576 12.5734 12.7209 12.5734ZM20.0004 12.5734H21.9415C22.1048 12.5734 22.2209 12.696 22.2209 12.8528V14.7793C22.2209 14.9362 22.1048 15.0587 21.9415 15.0587H20.0004C19.837 15.0587 19.7062 14.9362 19.7062 14.7793V12.8528C19.7062 12.696 19.837 12.5734 20.0004 12.5734ZM27.2653 12.5734H29.2211C29.3844 12.5734 29.5005 12.696 29.5005 12.8528V14.7793C29.5005 14.9362 29.3844 15.0587 29.2211 15.0587H27.2653C27.1019 15.0587 26.9858 14.9362 26.9858 14.7793V12.8528C26.9858 12.696 27.1019 12.5734 27.2653 12.5734ZM0.735996 13.2646L9.19195 21.0439C9.20152 21.0492 9.21134 21.0541 9.22136 21.0585L11.8096 23.4408L20.986 31.8822C20.9952 31.8925 21.005 31.9022 21.0154 31.9114L29.0299 39.2939H23.3829V38.1468C23.3851 38.0954 23.3761 38.0442 23.3565 37.9966C23.3369 37.949 23.3072 37.9062 23.2694 37.8712C23.2316 37.8363 23.1867 37.8099 23.1378 37.794C23.0888 37.7781 23.037 37.7731 22.9859 37.7793C22.8951 37.7873 22.8108 37.8299 22.7506 37.8983C22.6904 37.9668 22.6588 38.0557 22.6623 38.1468V39.2939H22.0888V37.3527C22.091 37.3013 22.082 37.25 22.0624 37.2024C22.0428 37.1549 22.013 37.1121 21.9753 37.0771C21.9375 37.0421 21.8926 37.0158 21.8436 36.9999C21.7947 36.984 21.7428 36.979 21.6917 36.9851C21.6009 36.9932 21.5167 37.0358 21.4565 37.1042C21.3962 37.1727 21.3646 37.2616 21.3682 37.3527V39.2939H20.7947V38.1468C20.7968 38.0954 20.7878 38.0442 20.7682 37.9966C20.7486 37.949 20.7189 37.9062 20.6811 37.8712C20.6434 37.8363 20.5984 37.8099 20.5495 37.794C20.5005 37.7781 20.4487 37.7731 20.3976 37.7793C20.3068 37.7873 20.2225 37.8299 20.1623 37.8983C20.1021 37.9668 20.0705 38.0557 20.0741 38.1468V39.2939H17.677V38.1468C17.6792 38.0954 17.6702 38.0442 17.6506 37.9966C17.631 37.949 17.6013 37.9062 17.5635 37.8712C17.5257 37.8363 17.4808 37.8099 17.4318 37.794C17.3829 37.7781 17.3311 37.7731 17.2799 37.7793C17.1918 37.7907 17.1112 37.8349 17.054 37.9029C16.9968 37.971 16.9672 38.058 16.9711 38.1468V39.2939H16.3829V37.3527C16.3848 37.3027 16.3761 37.2528 16.3574 37.2063C16.3387 37.1598 16.3103 37.1179 16.2742 37.0831C16.2381 37.0484 16.195 37.0217 16.1479 37.0048C16.1007 36.9879 16.0505 36.9813 16.0005 36.9851C15.9097 36.9932 15.8255 37.0358 15.7653 37.1042C15.705 37.1727 15.6734 37.2616 15.677 37.3527V39.2939H15.0888V38.1468C15.091 38.0954 15.082 38.0442 15.0623 37.9966C15.0427 37.949 15.013 37.9062 14.9753 37.8712C14.9375 37.8363 14.8926 37.8099 14.8436 37.794C14.7947 37.7781 14.7428 37.7731 14.6917 37.7793C14.6036 37.7907 14.5229 37.8349 14.4658 37.9029C14.4086 37.971 14.379 38.058 14.3829 38.1468V39.2939H11.9858V38.1468C11.988 38.0954 11.979 38.0442 11.9594 37.9966C11.9398 37.949 11.9101 37.9062 11.8723 37.8712C11.8345 37.8363 11.7896 37.8099 11.7407 37.794C11.6917 37.7781 11.6399 37.7731 11.5888 37.7793C11.5006 37.7907 11.42 37.8349 11.3628 37.9029C11.3056 37.971 11.2761 38.058 11.28 38.1468V39.2939H10.6917V37.3527C10.6939 37.3013 10.6849 37.25 10.6653 37.2024C10.6457 37.1549 10.616 37.1121 10.5782 37.0771C10.5404 37.0421 10.4955 37.0158 10.4466 36.9999C10.3976 36.984 10.3458 36.979 10.2947 36.9851C10.2065 36.9966 10.1259 37.0408 10.0687 37.1088C10.0115 37.1769 9.98196 37.2639 9.98585 37.3527V39.2792H9.39762V38.1468C9.3998 38.0954 9.39078 38.0442 9.37118 37.9966C9.35158 37.949 9.32187 37.9062 9.2841 37.8712C9.24633 37.8363 9.20141 37.8099 9.15245 37.794C9.10349 37.7781 9.05167 37.7731 9.00056 37.7793C8.91241 37.7907 8.83178 37.8349 8.7746 37.9029C8.71741 37.971 8.68785 38.058 8.69174 38.1468V39.2792H6.29467V38.1468C6.29686 38.0954 6.28784 38.0442 6.26824 37.9966C6.24863 37.949 6.21892 37.9062 6.18115 37.8712C6.14338 37.8363 6.09846 37.8099 6.0495 37.794C6.00055 37.7781 5.94872 37.7731 5.89761 37.7793C5.80946 37.7907 5.72883 37.8349 5.67165 37.9029C5.61447 37.971 5.5849 38.058 5.58879 38.1468V39.2792H5.00056V37.3527C5.00275 37.3013 4.99373 37.25 4.97413 37.2024C4.95452 37.1549 4.92481 37.1121 4.88704 37.0771C4.84927 37.0421 4.80435 37.0158 4.75539 36.9999C4.70643 36.984 4.65461 36.979 4.6035 36.9851C4.51535 36.9966 4.43472 37.0408 4.37754 37.1088C4.32036 37.1769 4.29079 37.2639 4.29468 37.3527V39.2792H3.70645V38.1468C3.70864 38.0954 3.69962 38.0442 3.68002 37.9966C3.66041 37.949 3.6307 37.9062 3.59293 37.8712C3.55516 37.8363 3.51024 37.8099 3.46128 37.794C3.41232 37.7781 3.3605 37.7731 3.30939 37.7793C3.22124 37.7907 3.14061 37.8349 3.08343 37.9029C3.02625 37.971 2.99668 38.058 3.00057 38.1468V39.2792H0.706467L0.721172 33.4854C0.721272 33.4805 0.721272 33.4757 0.721172 33.4708L0.735996 13.2646ZM20.0008 18.4265C19.4597 18.4265 19.0008 18.8704 19.0008 19.4118V21.353C19.0008 21.8943 19.4598 22.3383 20.0008 22.3383H21.942C22.4831 22.3383 22.942 21.8943 22.942 21.353V19.4118C22.942 18.8704 22.4831 18.4265 21.942 18.4265H20.0008ZM27.2657 18.4265C26.7246 18.4265 26.2804 18.8704 26.2804 19.4118V21.353C26.2804 21.8943 26.7246 22.3383 27.2657 22.3383H29.2216C29.7627 22.3383 30.2069 21.8943 30.2069 21.353V19.4118C30.2069 18.8704 29.7627 18.4265 29.2216 18.4265H27.2657ZM12.751 19.1471H14.648C14.8217 19.1471 14.9421 19.2755 14.9421 19.4559V25.3674L12.4274 23.0439V19.4557C12.4274 19.2944 12.5772 19.1471 12.751 19.1471ZM20.0008 19.1471H21.942C22.1053 19.1471 22.2214 19.2549 22.2214 19.4118V21.353C22.2214 21.5098 22.1053 21.6177 21.942 21.6177H20.0008C19.8375 21.6177 19.7067 21.5098 19.7067 21.353V19.4118C19.7067 19.2549 19.8375 19.1471 20.0008 19.1471ZM27.2657 19.1471H29.2216C29.3849 19.1471 29.501 19.2549 29.501 19.4118V21.353C29.501 21.5098 29.3849 21.6177 29.2216 21.6177H27.2657C27.1024 21.6177 26.9863 21.5098 26.9863 21.353V19.4118C26.9863 19.2549 27.1024 19.1471 27.2657 19.1471ZM4.58915 21.5883C4.50626 21.6027 4.43118 21.6461 4.37732 21.7108C4.32345 21.7754 4.29429 21.8571 4.29503 21.9412V31.4263V34.2057C4.29559 34.2991 4.33296 34.3886 4.39902 34.4547C4.46509 34.5207 4.55454 34.5581 4.64797 34.5586H18.0154C18.088 34.5609 18.1596 34.5409 18.2204 34.5012C18.2813 34.4616 18.3285 34.4043 18.3557 34.3369C18.383 34.2696 18.3889 34.1956 18.3728 34.1248C18.3566 34.054 18.3192 33.9898 18.2654 33.941L9.69183 26.0733C9.6738 26.0565 9.65409 26.0417 9.633 26.029L4.91256 21.6909C4.9078 21.6858 4.9029 21.681 4.89785 21.6763C4.85693 21.6383 4.80765 21.6106 4.75399 21.5952C4.70033 21.5799 4.64394 21.5777 4.58915 21.5883ZM5.01562 22.7647L9.10383 26.5147V29.5882C9.10383 30.9135 10.1829 31.9853 11.5156 31.9853H15.0744L17.1038 33.8529H5.00079L5.0155 31.4265L5.01562 22.7647ZM20.0009 24.9853C19.4599 24.9853 19.0009 25.4293 19.0009 25.9706V27.9117C19.0009 28.4531 19.4599 28.8971 20.0009 28.8971H21.9421C22.4832 28.8971 22.9421 28.4531 22.9421 27.9117V25.9706C22.9421 25.4293 22.4832 24.9853 21.9421 24.9853H20.0009ZM27.2658 24.9853C26.7248 24.9853 26.2805 25.4293 26.2805 25.9706V27.9117C26.2805 28.4531 26.7247 28.8971 27.2658 28.8971H29.2217C29.7628 28.8971 30.207 28.4531 30.207 27.9117V25.9706C30.207 25.4293 29.7628 24.9853 29.2217 24.9853H27.2658ZM20.0009 25.7059H21.9421C22.1054 25.7059 22.2215 25.8137 22.2215 25.9706V27.9117C22.2215 28.0686 22.1054 28.1912 21.9421 28.1912H20.0009C19.8376 28.1912 19.7068 28.0686 19.7068 27.9117V25.9706C19.7068 25.8137 19.8376 25.7059 20.0009 25.7059ZM27.2658 25.7059H29.2217C29.385 25.7059 29.5011 25.8137 29.5011 25.9706V27.9117C29.5011 28.0686 29.385 28.1912 29.2217 28.1912H27.2658C27.1025 28.1912 26.9864 28.0686 26.9864 27.9117V25.9706C26.9864 25.8137 27.1025 25.7059 27.2658 25.7059ZM9.80994 27.1618L14.2805 31.2647H11.5158C10.5593 31.2647 9.80994 30.5321 9.80994 29.5882V27.1618Z" fill="#367D8A"/>
<path fill-rule="evenodd" clip-rule="evenodd" d="M11.5145 0.720555H30.4114C31.3679 0.720555 32.1319 1.47091 32.1319 2.41175V29.5881C32.1319 30.5289 31.3679 31.2645 30.4114 31.2645H21.3526L15.6467 26.0147V19.4557C15.6467 18.9096 15.206 18.4262 14.6467 18.4262H12.7497C12.1904 18.4262 11.7203 18.8904 11.7203 19.4557V22.3968L9.80856 20.6468V2.41161C9.80856 1.46771 10.558 0.720555 11.5145 0.720555ZM11.7204 4.08821C11.7204 3.47654 12.226 2.98525 12.838 2.98525H29.0878C29.6998 2.98525 30.2055 3.47659 30.2055 4.08821V6.83822C30.2055 7.44984 29.6998 7.95587 29.0878 7.95587H12.838C12.226 7.95587 11.7204 7.44984 11.7204 6.83822V4.08821ZM11.7204 12.8529C11.7204 12.3115 12.1793 11.8675 12.7204 11.8675H14.6616C15.2026 11.8675 15.6616 12.3115 15.6616 12.8529V14.7794C15.6616 15.3207 15.2026 15.7646 14.6616 15.7646H12.7204C12.1793 15.7646 11.7204 15.3207 11.7204 14.7794V12.8529ZM18.9999 12.8529C18.9999 12.3115 19.4588 11.8675 19.9999 11.8675H21.941C22.4821 11.8675 22.941 12.3115 22.941 12.8529V14.7794C22.941 15.3207 22.4821 15.7646 21.941 15.7646H19.9999C19.4588 15.7646 18.9999 15.3207 18.9999 14.7794V12.8529ZM26.2795 12.8529C26.2795 12.3115 26.7237 11.8675 27.2648 11.8675H29.2206C29.7617 11.8675 30.2059 12.3115 30.2059 12.8529V14.7794C30.2059 15.3207 29.7617 15.7646 29.2206 15.7646H27.2648C26.7237 15.7646 26.2795 15.3207 26.2795 14.7794V12.8529ZM19.0008 19.4118C19.0008 18.8704 19.4597 18.4265 20.0008 18.4265H21.942C22.4831 18.4265 22.942 18.8704 22.942 19.4118V21.353C22.942 21.8943 22.4831 22.3383 21.942 22.3383H20.0008C19.4598 22.3383 19.0008 21.8943 19.0008 21.353V19.4118ZM26.2804 19.4118C26.2804 18.8704 26.7246 18.4265 27.2657 18.4265H29.2216C29.7627 18.4265 30.2069 18.8704 30.2069 19.4118V21.353C30.2069 21.8943 29.7627 22.3383 29.2216 22.3383H27.2657C26.7246 22.3383 26.2804 21.8943 26.2804 21.353V19.4118ZM19.0009 25.9706C19.0009 25.4293 19.4599 24.9853 20.0009 24.9853H21.9421C22.4832 24.9853 22.9421 25.4293 22.9421 25.9706V27.9117C22.9421 28.4531 22.4832 28.8971 21.9421 28.8971H20.0009C19.4599 28.8971 19.0009 28.4531 19.0009 27.9117V25.9706ZM26.2805 25.9706C26.2805 25.4293 26.7248 24.9853 27.2658 24.9853H29.2217C29.7628 24.9853 30.207 25.4293 30.207 25.9706V27.9117C30.207 28.4531 29.7628 28.8971 29.2217 28.8971H27.2658C26.7247 28.8971 26.2805 28.4531 26.2805 27.9117V25.9706Z" fill="#367D8A"/>
<path d="M9.80994 27.1618L14.2805 31.2647H11.5158C10.5593 31.2647 9.80994 30.5321 9.80994 29.5882V27.1618Z" fill="#367D8A"/>
</svg>
