<svg width="38" height="41" viewBox="0 0 38 41" fill="none" xmlns="http://www.w3.org/2000/svg">
<path fill-rule="evenodd" clip-rule="evenodd" d="M19.3511 2.95048e-05L34.9273 9.85962V16.2404L34.3789 16.5539L38 18.8459V25.2268L33.553 27.7687V31.5655L17.048 41L2.54618 31.6928C-0.28906 29.8731 -1.07806 26.2175 1.84213 24.5481L4.80513 22.8544C4.07065 21.1606 4.41966 19.278 6.28914 18.2093L6.55387 18.0576L3.92048 16.3676C1.08525 14.5479 0.29625 10.8923 3.21644 9.22288L19.3511 0L19.3511 2.95048e-05ZM21.4314 3.96246L27.4086 8.00753L23.6671 10.3518L17.6903 6.30676L21.4314 3.96246H21.4314ZM17.2306 34.8502V39.0726L32.0419 30.6545V28.6325L21.495 34.6613L19.7193 33.5406L17.2306 34.8503L17.2306 34.8502ZM16.8266 38.9604V34.7585L3.03919 26.5246C1.37608 25.5315 1.27473 29.1164 2.88099 30.1331L16.8265 38.9604L16.8266 38.9604ZM21.8395 29.03V32.6417L36.4889 24.3157V20.774L21.8395 29.0301V29.03ZM21.4353 32.724V29.069L7.48619 20.1858C5.82191 19.1943 5.72157 22.7776 7.32799 23.7943L21.4353 32.724L21.4353 32.724ZM19.4944 20.2395V23.8132L33.4162 15.3293V11.8676L19.4944 20.2395V20.2395ZM19.0902 23.8174V20.2416L4.41332 11.1994C2.7492 10.2079 2.63063 13.8212 4.25528 14.8079L19.0902 23.8174L19.0902 23.8174Z" fill="black"/>
</svg>
