<?xml version="1.0" encoding="UTF-8" standalone="no"?>
<svg
   xmlns:dc="http://purl.org/dc/elements/1.1/"
   xmlns:cc="http://creativecommons.org/ns#"
   xmlns:rdf="http://www.w3.org/1999/02/22-rdf-syntax-ns#"
   xmlns:svg="http://www.w3.org/2000/svg"
   xmlns="http://www.w3.org/2000/svg"
   xmlns:sodipodi="http://sodipodi.sourceforge.net/DTD/sodipodi-0.dtd"
   xmlns:inkscape="http://www.inkscape.org/namespaces/inkscape"
   width="236.34564"
   height="60.146503"
   viewBox="0 0 236.34564 60.146503"
   version="1.1"
   id="svg4958"
   sodipodi:docname="ai-logotype-final.svg"
   style="fill:none"
   inkscape:version="0.92.4 (5da689c313, 2019-01-14)"
   inkscape:export-filename="C:\temp\ai-logo-with-text-aligned-thin-top-more-point.png"
   inkscape:export-xdpi="406.23999"
   inkscape:export-ydpi="406.23999">
  <metadata
     id="metadata4964">
    <rdf:RDF>
      <cc:Work
         rdf:about="">
        <dc:format>image/svg+xml</dc:format>
        <dc:type
           rdf:resource="http://purl.org/dc/dcmitype/StillImage" />
        <dc:title></dc:title>
      </cc:Work>
    </rdf:RDF>
  </metadata>
  <defs
     id="defs4962" />
  <sodipodi:namedview
     pagecolor="#ffffff"
     bordercolor="#666666"
     borderopacity="1"
     objecttolerance="10"
     gridtolerance="10"
     guidetolerance="10"
     inkscape:pageopacity="0"
     inkscape:pageshadow="2"
     inkscape:window-width="3692"
     inkscape:window-height="2126"
     id="namedview4960"
     showgrid="false"
     showguides="true"
     inkscape:guide-bbox="true"
     inkscape:zoom="5.6568543"
     inkscape:cx="14.482099"
     inkscape:cy="33.300702"
     inkscape:window-x="-11"
     inkscape:window-y="-11"
     inkscape:window-maximized="1"
     inkscape:current-layer="layer3">
    <sodipodi:guide
       position="7.6445312,49.761723"
       orientation="0,1"
       id="guide5522"
       inkscape:locked="false" />
    <sodipodi:guide
       position="13.921165,4.0186626"
       orientation="0,1"
       id="guide5526"
       inkscape:locked="false" />
    <sodipodi:guide
       position="51.738281,22.543892"
       orientation="1,0"
       id="guide5545"
       inkscape:locked="false" />
    <sodipodi:guide
       position="236.3164,3.0556062"
       orientation="1,0"
       id="guide5547"
       inkscape:locked="false" />
    <sodipodi:guide
       position="29.621145,27.86142"
       orientation="0,1"
       id="guide5775"
       inkscape:locked="false" />
    <sodipodi:guide
       position="10.518213,32.733828"
       orientation="0,1"
       id="guide5800"
       inkscape:locked="false" />
    <sodipodi:guide
       position="-6.1429901,5.1265235"
       orientation="1,0"
       id="guide6489"
       inkscape:locked="false" />
    <sodipodi:guide
       position="-7.2036502,8.0654361"
       orientation="0,1"
       id="guide6493"
       inkscape:locked="false" />
    <sodipodi:guide
       position="7.9549511,14.186329"
       orientation="1,0"
       id="guide6495"
       inkscape:locked="false" />
    <sodipodi:guide
       position="37.25,3.4296869"
       orientation="1,0"
       id="guide6497"
       inkscape:locked="false" />
    <sodipodi:guide
       position="12.296875,59.999999"
       orientation="0,1"
       id="guide6501"
       inkscape:locked="false" />
  </sodipodi:namedview>
  <g
     inkscape:groupmode="layer"
     id="layer2"
     inkscape:label="AI text Open Sans"
     style="display:none"
     transform="translate(0,0.14650506)">
    <g
       style="fill:none"
       id="g5520"
       transform="matrix(1.0155444,0,0,1.0155444,52.186219,9.22278)">
      <path
         id="path5509"
         d="m 19.18,22 h 5.1 L 14.89,0.999999 h -4.8 L 0.73,22 h 4.98 l 1.86,-4.5 h 9.75 z m -10.05,-8.19 3.33,-8.04 3.33,8.04 z m 27.0858,8.55 c 3.66,0 6.69,-1.32 8.67,-3.75 l -3.12,-2.88 c -1.41,1.65 -3.18,2.49 -5.28,2.49 -3.93,0 -6.72,-2.76 -6.72,-6.72 0,-3.96 2.79,-6.72 6.72,-6.72 2.1,0 3.87,0.84 5.28,2.46 l 3.12,-2.88 c -1.98,-2.4 -5.01,-3.72 -8.64,-3.72 -6.54,0 -11.4,4.53 -11.4,10.86 0,6.33 4.86,10.86 11.37,10.86 z M 63.4476,22 h 5.1 l -9.39,-21.000001 h -4.8 L 44.9976,22 h 4.98 l 1.86,-4.5 h 9.75 z m -10.05,-8.19 3.33,-8.04 3.33,8.04 z M 70.7263,22 h 9.54 c 6.87,0 11.58,-4.14 11.58,-10.5 0,-6.36 -4.71,-10.500001 -11.58,-10.500001 h -9.54 z m 4.86,-3.99 V 4.99 h 4.44 c 4.17,0 6.9,2.49 6.9,6.51 0,4.02 -2.73,6.51 -6.9,6.51 z m 24.7547,0.09 v -4.86 h 9.75 V 9.46 h -9.75 V 4.9 h 11.04 V 0.999999 H 95.5115 V 22 h 16.2595 v -3.9 z m 38.967,3.9 -0.06,-21.000001 h -3.99 L 127.518,14.05 119.658,0.999999 h -4.02 V 22 h 4.56 V 9.67 l 6.15,10.11 h 2.19 l 6.18,-10.38 0.03,12.6 z m 4.983,0 h 4.86 V 0.999999 h -4.86 z m 19.894,0.36 c 3.66,0 6.69,-1.32 8.67,-3.75 l -3.12,-2.88 c -1.41,1.65 -3.18,2.49 -5.28,2.49 -3.93,0 -6.72,-2.76 -6.72,-6.72 0,-3.96 2.79,-6.72 6.72,-6.72 2.1,0 3.87,0.84 5.28,2.46 l 3.12,-2.88 c -1.98,-2.4 -5.01,-3.72 -8.64,-3.72 -6.54,0 -11.4,4.53 -11.4,10.86 0,6.33 4.86,10.86 11.37,10.86 z M 3.49,50 H 8.35 V 29 H 3.49 Z M 27.7937,29 V 41.75 L 17.3538,29 h -4.02 v 21 h 4.8 V 37.25 L 28.6038,50 h 3.99 V 29 Z m 25.6386,3.9 V 29 h -15.87 v 21 h 4.86 v -7.65 h 9.72 v -3.9 h -9.72 V 32.9 Z M 56.7224,50 h 15.39 v -3.96 h -10.53 V 29 h -4.86 z m 27.1718,0.36 c 5.97,0 9.51,-3.42 9.51,-9.6 V 29 h -4.8 v 11.58 c 0,3.99 -1.71,5.64 -4.68,5.64 -2.94,0 -4.68,-1.65 -4.68,-5.64 V 29 h -4.86 v 11.76 c 0,6.18 3.54,9.6 9.51,9.6 z M 103.037,46.1 v -4.86 h 9.75 v -3.78 h -9.75 V 32.9 h 11.04 V 29 H 98.2068 V 50 H 114.467 V 46.1 Z M 132.794,29 V 41.75 L 122.354,29 h -4.02 v 21 h 4.8 V 37.25 L 133.604,50 h 3.99 V 29 Z m 19.818,21.36 c 3.66,0 6.69,-1.32 8.67,-3.75 l -3.12,-2.88 c -1.41,1.65 -3.18,2.49 -5.28,2.49 -3.93,0 -6.72,-2.76 -6.72,-6.72 0,-3.96 2.79,-6.72 6.72,-6.72 2.1,0 3.87,0.84 5.28,2.46 l 3.12,-2.88 c -1.98,-2.4 -5.01,-3.72 -8.64,-3.72 -6.54,0 -11.4,4.53 -11.4,10.86 0,6.33 4.86,10.86 11.37,10.86 z m 16.782,-4.26 v -4.86 h 9.75 v -3.78 h -9.75 V 32.9 h 11.04 V 29 h -15.87 v 21 h 16.26 v -3.9 z"
         inkscape:connector-curvature="0"
         style="fill:#367d8a" />
    </g>
  </g>
  <g
     inkscape:groupmode="layer"
     id="layer3"
     inkscape:label="AI Text Montserrat"
     style="display:inline"
     transform="translate(0,0.14650506)">
    <text
       id="text5569"
       y="54.793007"
       x="50.103977"
       style="font-style:normal;font-variant:normal;font-weight:normal;font-stretch:normal;font-size:66.67886353px;line-height:1.25;font-family:'Open Sans';-inkscape-font-specification:'Open Sans';letter-spacing:-0.82306713px;word-spacing:0px;fill:#000000;fill-opacity:1;stroke:none;stroke-width:1.04185724"
       xml:space="preserve"
       transform="scale(0.97865963,1.0218057)"><tspan
         style="font-style:normal;font-variant:normal;font-weight:bold;font-stretch:normal;font-size:33.33943176px;font-family:Montserrat;-inkscape-font-specification:'Montserrat Bold';letter-spacing:-1.17729878px;fill:#367d8a;fill-opacity:1;stroke-width:1.04185724"
         id="tspan5567"
         y="54.793007"
         x="50.103977"
         sodipodi:role="line"
         dx="0">IN<tspan
   style="letter-spacing:-0.23962717px;stroke-width:1.04185724"
   id="tspan5671">F</tspan>LUENCE</tspan></text>
    <text
       id="text5569-9"
       y="23.187197"
       x="52.151344"
       style="font-style:normal;font-variant:normal;font-weight:300;font-stretch:normal;font-size:66.19021606px;line-height:1.25;font-family:Montserrat;-inkscape-font-specification:'Montserrat Light';letter-spacing:-0.81703538px;word-spacing:0px;display:inline;fill:#000000;fill-opacity:1;stroke:none;stroke-width:1.03422213"
       xml:space="preserve"
       transform="scale(0.98873328,1.0113951)"><tspan
         style="font-style:normal;font-variant:normal;font-weight:300;font-stretch:normal;font-size:33.09510803px;font-family:Montserrat;-inkscape-font-specification:'Montserrat Light';letter-spacing:0.64408833px;fill:#367d8a;fill-opacity:1;stroke-width:1.03422213"
         id="tspan5567-0"
         y="23.187197"
         x="52.151344"
         sodipodi:role="line">ACADEMIC</tspan></text>
  </g>
  <g
     inkscape:groupmode="layer"
     id="layer4"
     inkscape:label="AI Logo"
     transform="translate(0,0.14650506)">
    <path
       style="clip-rule:evenodd;fill:#367d8a;fill-rule:evenodd;stroke-width:1"
       d="M 45.2133,0 H 0 V 60 L 7.9549512,51.934564 7.96207,10.237 H 37.2512 L 37.25,51.934564 45.2133,60 Z"
       id="path4952"
       inkscape:connector-curvature="0"
       sodipodi:nodetypes="ccccccccc" />
    <path
       style="fill:#e57045;stroke-width:0.99684161"
       d="m 18.4834,32.1327 h 8.2464 v 23.848637 h -8.2464 z"
       id="path4954"
       inkscape:connector-curvature="0" />
    <path
       style="fill:#e57045"
       d="m 18.4834,19.0521 h 8.2464 v 8.2465 h -8.2464 z"
       id="path4956"
       inkscape:connector-curvature="0" />
  </g>
</svg>
