<svg width="27" height="40" viewBox="0 0 27 40" fill="none" xmlns="http://www.w3.org/2000/svg">
<path fill-rule="evenodd" clip-rule="evenodd" d="M11.5805 30.5055C11.5805 30.0882 11.9189 29.7499 12.3362 29.7499C12.7535 29.7499 13.0919 30.0882 13.0919 30.5055C13.0919 30.9228 12.7535 31.2612 12.3362 31.2612C11.9189 31.2612 11.5805 30.9228 11.5805 30.5055ZM24.0503 24.4546C16.2302 22.2384 9.44801 27.5782 2.36605 25.094C2.75253 23.4053 3.45458 21.8542 4.42994 20.5536C5.88352 18.6153 7.95291 17.229 10.4935 16.7791L11.33 16.631V15.7849V2.02026H15.2342V15.8252V16.6802L16.0826 16.8195C18.6448 17.2402 20.7068 18.5961 22.1488 20.5128C23.006 21.6521 23.6479 22.9915 24.0504 24.4545L24.0503 24.4546ZM9.30982 14.9699C6.61851 15.6494 4.41187 17.2236 2.82012 19.3461C1.00609 21.7651 0 24.8912 0 28.199C0 30.6701 0.680426 32.9892 1.86494 34.9794C3.08855 37.0353 4.84895 38.7317 6.95131 39.8737L7.4327 40H19.1315L19.6129 39.8737C21.7153 38.7317 23.4756 37.0353 24.6993 34.9795C25.8839 32.9892 26.5642 30.6701 26.5642 28.199C26.5642 24.8557 25.5732 21.7173 23.7586 19.3054C22.1738 17.199 19.9697 15.6515 17.2544 15.0017V2.02027H18.1335V3.07336e-05L17.2544 0H16.2444H10.3199L9.30981 3.07336e-05H8.43069V2.02027H9.30981V14.9699L9.30982 14.9699ZM9.31354 32.3191C10.1482 32.3191 10.8249 32.9958 10.8249 33.8304C10.8249 34.6651 10.1482 35.3418 9.31354 35.3418C8.47889 35.3418 7.80222 34.6651 7.80222 33.8304C7.80222 32.9958 8.47889 32.3191 9.31354 32.3191Z" fill="#1e988a"/>
</svg>
