<svg width="40" height="40" viewBox="0 0 40 40" fill="none" xmlns="http://www.w3.org/2000/svg">
<path d="M31.8182 21.8182C29.2003 21.8182 26.9983 23.6768 26.4929 26.1985C27.9257 27.4312 29.7844 28.1818 31.8182 28.1818C33.852 28.1818 35.7108 27.4312 37.1436 26.1985C36.6381 23.6768 34.4362 21.8182 31.8182 21.8182Z" fill="black"/>
<path d="M31.8182 11.9007C28.9453 11.9007 25.9602 14.1979 24.5 16.4442L15.8521 11.9007C16.1774 11.0204 16.3636 9.25657 16.3636 8.26436C16.3636 3.75264 12.6931 0.0825424 8.18182 0.0825424C3.67054 0.0825424 0 3.75264 0 8.26436C0 9.96868 0.525013 11.552 1.42007 12.8636C2.49123 10.1476 5.13389 8.26436 8.18182 8.26436C11.2297 8.26436 13.8724 10.1476 14.9436 12.8636C14.9773 12.8143 15.0012 12.7582 15.0339 12.7081L24.1465 17.266C23.8224 18.1456 23.6364 19.0917 23.6364 20.0825C23.6364 21.0762 23.8202 22.6184 24.1465 23.5L15.5 28C14.0395 25.7557 11.0532 23.7189 8.18182 23.7189C3.67054 23.7189 0 27.389 0 31.9007C0 33.605 0.525013 35.1884 1.42007 36.5C2.49123 33.7839 5.13389 31.9007 8.18182 31.9007C11.2297 31.9007 13.8724 33.7839 14.9436 36.5C15.8386 35.1884 16.3636 33.605 16.3636 31.9007C16.3636 30.9084 16.1771 29.961 15.8521 29.0802L24.9682 24.5299C25.0001 24.5789 25.0235 24.6335 25.0564 24.6818C26.1276 21.9658 28.7703 20.0825 31.8182 20.0825C34.8661 20.0825 37.5088 21.9658 38.5799 24.6818C39.475 23.3702 40 21.7869 40 20.0825C40 15.5708 36.3295 11.9007 31.8182 11.9007ZM8.17943 7.35327C6.67941 7.35327 5.45216 6.13501 5.45216 4.626C5.45216 3.12598 6.67941 1.89873 8.17943 1.89873C9.6885 1.89873 10.9067 3.12598 10.9067 4.626C10.9067 6.13501 9.6885 7.35327 8.17943 7.35327ZM8.17943 30.9896C6.67941 30.9896 5.45216 29.7714 5.45216 28.2624C5.45216 26.7623 6.67941 25.5351 8.17943 25.5351C9.6885 25.5351 10.9067 26.7623 10.9067 28.2624C10.9067 29.7714 9.6885 30.9896 8.17943 30.9896ZM31.8158 19.1715C30.3158 19.1715 29.0885 17.9532 29.0885 16.4442C29.0885 14.9442 30.3158 13.7169 31.8158 13.7169C33.3249 13.7169 34.5431 14.9442 34.5431 16.4442C34.5431 17.9532 33.3249 19.1715 31.8158 19.1715Z" fill="black"/>
<path d="M13.5071 14.3803C13.0017 11.8586 10.7997 10 8.18176 10C5.5638 10 3.36187 11.8586 2.85645 14.3803C4.28922 15.613 6.14796 16.3636 8.18176 16.3636C10.2156 16.3636 12.0743 15.613 13.5071 14.3803Z" fill="black"/>
<path d="M8.18176 33.6364C5.5638 33.6364 3.36187 35.4949 2.85645 38.0167C4.28922 39.2494 6.14796 40 8.18176 40C10.2156 40 12.0743 39.2494 13.5071 38.0167C13.0017 35.4949 10.7997 33.6364 8.18176 33.6364Z" fill="black"/>
</svg>
